<mxfile host="app.diagrams.net" modified="2023-09-19T07:47:48.497Z" agent="Mozilla/5.0 (Windows NT 10.0; Win64; x64) AppleWebKit/537.36 (KHTML, like Gecko) Chrome/116.0.0.0 Safari/537.36" etag="WgpIie3aUY2SzNSA2u1H" version="21.6.9" type="device">
  <diagram id="C5RBs43oDa-KdzZeNtuy" name="Page-1">
    <mxGraphModel dx="1195" dy="632" grid="1" gridSize="10" guides="1" tooltips="1" connect="1" arrows="1" fold="1" page="1" pageScale="1" pageWidth="827" pageHeight="1169" math="0" shadow="0">
      <root>
        <mxCell id="WIyWlLk6GJQsqaUBKTNV-0" />
        <mxCell id="WIyWlLk6GJQsqaUBKTNV-1" parent="WIyWlLk6GJQsqaUBKTNV-0" />
        <mxCell id="8LAxEYNCKWYRXrp6xnsM-3" style="edgeStyle=orthogonalEdgeStyle;rounded=0;orthogonalLoop=1;jettySize=auto;html=1;entryX=0;entryY=0.5;entryDx=0;entryDy=0;" edge="1" parent="WIyWlLk6GJQsqaUBKTNV-1" source="8LAxEYNCKWYRXrp6xnsM-0" target="8LAxEYNCKWYRXrp6xnsM-2">
          <mxGeometry relative="1" as="geometry" />
        </mxCell>
        <mxCell id="8LAxEYNCKWYRXrp6xnsM-0" value="EXCEL_DB" style="shape=datastore;whiteSpace=wrap;html=1;" vertex="1" parent="WIyWlLk6GJQsqaUBKTNV-1">
          <mxGeometry x="60" y="90" width="80" height="90" as="geometry" />
        </mxCell>
        <mxCell id="8LAxEYNCKWYRXrp6xnsM-9" style="edgeStyle=orthogonalEdgeStyle;rounded=0;orthogonalLoop=1;jettySize=auto;html=1;" edge="1" parent="WIyWlLk6GJQsqaUBKTNV-1" source="8LAxEYNCKWYRXrp6xnsM-2" target="8LAxEYNCKWYRXrp6xnsM-8">
          <mxGeometry relative="1" as="geometry" />
        </mxCell>
        <mxCell id="8LAxEYNCKWYRXrp6xnsM-2" value="ACCESS_DB" style="shape=datastore;whiteSpace=wrap;html=1;" vertex="1" parent="WIyWlLk6GJQsqaUBKTNV-1">
          <mxGeometry x="190" y="90" width="80" height="90" as="geometry" />
        </mxCell>
        <mxCell id="8LAxEYNCKWYRXrp6xnsM-14" style="edgeStyle=orthogonalEdgeStyle;rounded=0;orthogonalLoop=1;jettySize=auto;html=1;startArrow=classic;startFill=1;" edge="1" parent="WIyWlLk6GJQsqaUBKTNV-1" source="8LAxEYNCKWYRXrp6xnsM-8" target="8LAxEYNCKWYRXrp6xnsM-10">
          <mxGeometry relative="1" as="geometry" />
        </mxCell>
        <mxCell id="8LAxEYNCKWYRXrp6xnsM-8" value="MainForm()" style="swimlane;whiteSpace=wrap;html=1;" vertex="1" parent="WIyWlLk6GJQsqaUBKTNV-1">
          <mxGeometry x="270" y="230" width="200" height="200" as="geometry" />
        </mxCell>
        <mxCell id="8LAxEYNCKWYRXrp6xnsM-15" style="edgeStyle=orthogonalEdgeStyle;rounded=0;orthogonalLoop=1;jettySize=auto;html=1;entryX=0.5;entryY=0;entryDx=0;entryDy=0;" edge="1" parent="WIyWlLk6GJQsqaUBKTNV-1" source="8LAxEYNCKWYRXrp6xnsM-10" target="8LAxEYNCKWYRXrp6xnsM-11">
          <mxGeometry relative="1" as="geometry" />
        </mxCell>
        <mxCell id="8LAxEYNCKWYRXrp6xnsM-16" value="Verification = TRUE" style="edgeLabel;html=1;align=center;verticalAlign=middle;resizable=0;points=[];" vertex="1" connectable="0" parent="8LAxEYNCKWYRXrp6xnsM-15">
          <mxGeometry x="-0.2267" y="1" relative="1" as="geometry">
            <mxPoint as="offset" />
          </mxGeometry>
        </mxCell>
        <mxCell id="8LAxEYNCKWYRXrp6xnsM-10" value="EXCEL_DB" style="shape=datastore;whiteSpace=wrap;html=1;" vertex="1" parent="WIyWlLk6GJQsqaUBKTNV-1">
          <mxGeometry x="590" y="160" width="80" height="90" as="geometry" />
        </mxCell>
        <mxCell id="8LAxEYNCKWYRXrp6xnsM-11" value="EXCEL_DB" style="shape=datastore;whiteSpace=wrap;html=1;" vertex="1" parent="WIyWlLk6GJQsqaUBKTNV-1">
          <mxGeometry x="670" y="350" width="80" height="90" as="geometry" />
        </mxCell>
      </root>
    </mxGraphModel>
  </diagram>
</mxfile>
